<svg xmlns="http://www.w3.org/2000/svg" viewBox="0 0 64 64">
  <!-- shirt -->
  <ellipse cx="32" cy="60" rx="14" ry="8" fill="#FF6B9D"/>
  <!-- left side hair -->
  <rect x="15" y="26" width="5" height="22" rx="2.5" fill="#1C0F0A"/>
  <!-- main top hair -->
  <ellipse cx="32" cy="25" rx="17" ry="13" fill="#1C0F0A"/>
  <!-- ponytail (upper right) -->
  <path d="M43 24 Q56 13 54 29 Q52 36 43 33 Z" fill="#1C0F0A"/>
  <!-- hair tie -->
  <circle cx="43" cy="24" r="3.5" fill="#FF6B9D"/>
  <!-- face -->
  <circle cx="32" cy="36" r="14" fill="#FFCC99"/>
  <!-- eyebrows (arched) -->
  <path d="M24 29 Q27 27.5 30 28.5" stroke="#555" stroke-width="1.2" fill="none" stroke-linecap="round"/>
  <path d="M34 28.5 Q37 27.5 40 29" stroke="#555" stroke-width="1.2" fill="none" stroke-linecap="round"/>
  <!-- eyes -->
  <circle cx="27" cy="33" r="2.2" fill="#333"/>
  <circle cx="37" cy="33" r="2.2" fill="#333"/>
  <circle cx="27.9" cy="32.2" r="0.9" fill="white"/>
  <circle cx="37.9" cy="32.2" r="0.9" fill="white"/>
  <!-- nose -->
  <ellipse cx="32" cy="37.5" rx="1.4" ry="0.9" fill="#EEB07A" opacity="0.6"/>
  <!-- mouth -->
  <path d="M28 41 Q32 44.5 36 41" stroke="#CC4444" stroke-width="1.3" fill="none" stroke-linecap="round"/>
</svg>
